HIERARCHY
ROOT Hips
{
	OFFSET	0	0	0
	CHANNELS 6  Xposition Yposition Zposition Xrotation Yrotation Zrotation
	JOINT Spine
	{
		OFFSET	0	3.19623	0.642429
		CHANNELS 3  Xrotation Yrotation Zrotation
		JOINT Spine1
		{
			OFFSET	0	5.47858	-0.978319
			CHANNELS 3  Xrotation Yrotation Zrotation
			JOINT Spine2
			{
				OFFSET	0	4.15296	0.445135
				CHANNELS 3  Xrotation Yrotation Zrotation
				JOINT Spine3
				{
					OFFSET	0	4.96986	1.47726
					CHANNELS 3  Xrotation Yrotation Zrotation
					JOINT Spine4
					{
						OFFSET	0	7.35696	-0.753305
						CHANNELS 3  Xrotation Yrotation Zrotation
						JOINT Neck
						{
							OFFSET	0	3.51216	-2.46047
							CHANNELS 3  Xrotation Yrotation Zrotation
							JOINT Head
							{
								OFFSET	0	4.21655	-1.26203
								CHANNELS 3  Xrotation Yrotation Zrotation
								End Site
								{
									OFFSET	0	8.79508	-0.425569
								}
							}
						}
					}
					JOINT LeftShoulder
					{
						OFFSET	-2.11317	8.94183	-4.21655
						CHANNELS 3  Xrotation Yrotation Zrotation
						JOINT LeftArm
						{
							OFFSET	-4.62126	-1.26203	1.61913
							CHANNELS 3  Xrotation Yrotation Zrotation
							JOINT LeftForeArm
							{
								OFFSET	-15.9392	-0.727493	1.13773
								CHANNELS 3  Xrotation Yrotation Zrotation
								JOINT LeftHand
								{
									OFFSET	-12.8901	-0.890778	0.920079
									CHANNELS 3  Xrotation Yrotation Zrotation
									End Site
									{
										OFFSET	-4.70424	-0.325089	0.335762
									}
								}
							}
						}
					}
					JOINT RightShoulder
					{
						OFFSET	2.11317	8.94183	-4.21655
						CHANNELS 3  Xrotation Yrotation Zrotation
						JOINT RightArm
						{
							OFFSET	4.62126	-1.26203	1.61913
							CHANNELS 3  Xrotation Yrotation Zrotation
							JOINT RightForeArm
							{
								OFFSET	15.9392	-0.727493	1.13773
								CHANNELS 3  Xrotation Yrotation Zrotation
								JOINT RightHand
								{
									OFFSET	12.8901	-0.890778	0.920079
									CHANNELS 3  Xrotation Yrotation Zrotation
									End Site
									{
										OFFSET	4.70424	-0.325089	0.335762
									}
								}
							}
						}
					}
				}
			}
		}
	}
	JOINT LeftUpLeg
	{
		OFFSET	-4.36218	-1.59811	-0.321215
		CHANNELS 3  Xrotation Yrotation Zrotation
		JOINT LeftLeg
		{
			OFFSET	-1.01617	-19.9114	-0.311258
			CHANNELS 3  Xrotation Yrotation Zrotation
			JOINT LeftFoot
			{
				OFFSET	-0.990294	-18.2543	1.56987
				CHANNELS 3  Xrotation Yrotation Zrotation
				JOINT LeftToeBase
				{
					OFFSET	0	-2.30168	-6.11325
					CHANNELS 3  Xrotation Yrotation Zrotation
					End Site
					{
						OFFSET	0	-0.92067	-3.68268
					}
				}
			}
		}
	}
	JOINT RightUpLeg
	{
		OFFSET	4.36218	-1.59811	-0.321215
		CHANNELS 3  Xrotation Yrotation Zrotation
		JOINT RightLeg
		{
			OFFSET	1.01617	-19.9114	-0.311258
			CHANNELS 3  Xrotation Yrotation Zrotation
			JOINT RightFoot
			{
				OFFSET	0.990294	-18.2543	1.56987
				CHANNELS 3  Xrotation Yrotation Zrotation
				JOINT RightToeBase
				{
					OFFSET	0	-2.30168	-6.11325
					CHANNELS 3  Xrotation Yrotation Zrotation
					End Site
					{
						OFFSET	0	-0.92067	-3.68268
					}
				}
			}
		}
	}
}
MOTION
Frames: 7
Frame Time: 0.033334
 0 17.389 5.0787 -0 0 -0 -0 0 -0 -0 0 -0 -0 0 -0 -0 0 -0 -0 0 -0 -0 0 -0 -0 0 -0 -0 0 -0 -0 0 -0 -0 0 -0 -0 0 -0 -0 0 -0 -0 0 -0 -0 0 -0 -0 0 -0 -0 0 -0 -0 0 -0 -0 0 -0 -0 0 -0 -0 0 -0 -0 0 -0 -0 0 -0 -0 0 -0
 -9.14355 46.2361 63.1631 4.16799 -49.6863 7.38018 4.69847e-05 0.00938708 -0.286777 1.53777 0.0187737 -0.477962 2.46486 0.0563213 -0.477963 3.80546 0.00938708 -0.286777 174.025 179.99 179.905 161.91 -157.571 167.616 172.995 -142.406 171.396 175.268 -151.763 169.68 170.666 -167.458 -96.9713 89.8308 -77.2002 89.8681 -0 -40.5774 18.4919 176.401 160.464 -172.234 173.002 161.832 97.4844 6.38523 101.76 -6.20896 -0 -16.867 -19.1971 174.208 147.162 -179.234 6.41011 -9.9628 -3.40405 157.023 179.964 -165.684 28.6408 0 0 174.491 -154.761 167.369 179.734 171.338 -172.062 160.863 -179.83 165.818 5.11612 0 0
 -9.12982 46.2357 63.1853 4.22638 -49.4843 7.53085 2.95593e-05 0.00564517 -0.30001 1.5328 0.0112901 -0.500016 2.46163 0.0338702 -0.500016 3.80775 0.00564517 -0.30001 174.01 179.99 179.901 161.871 -157.578 167.597 172.981 -142.408 171.386 175.351 -151.92 169.861 170.583 -167.575 -97.1745 89.7229 -77.0801 89.7421 -0 -40.4246 18.4107 176.393 160.059 -172.209 173.021 161.826 97.4617 5.52902 101.739 -5.38213 -0 -17.2931 -18.5936 174.329 147.2 -179.526 6.37347 -9.9679 -3.24168 157.089 179.97 -165.691 28.6406 0 0 174.377 -154.681 167.243 179.698 171.267 -172.183 160.835 -179.837 165.827 5.11603 0 0
 -9.12058 46.2316 63.2236 4.28307 -49.2823 7.63363 3.68874e-05 0.00694874 -0.304152 1.52785 0.0138971 -0.506921 2.45905 0.0416914 -0.506921 3.81138 0.00694874 -0.304152 173.993 179.989 179.899 161.82 -157.584 167.556 172.964 -142.411 171.37 175.409 -151.868 169.989 170.536 -167.667 -97.3132 89.7685 -76.9629 89.7926 -0 -40.3447 18.3433 176.36 159.706 -172.132 172.996 161.85 97.5061 4.79457 101.607 -4.6849 -0 -17.7278 -18.0049 174.507 147.223 -179.771 6.22129 -9.97739 -3.13233 157.164 179.984 -165.702 28.6484 0 0 174.301 -154.607 167.159 179.673 171.214 -172.288 160.841 -179.836 165.832 5.11609 0 0
 -9.12821 46.2297 63.2228 4.36029 -49.0501 7.65844 2.82518e-05 0.00496008 -0.326344 1.52521 0.00991988 -0.543906 2.45768 0.0297597 -0.543906 3.81362 0.00496008 -0.326344 173.982 179.989 179.892 161.795 -157.6 167.589 172.954 -142.413 171.375 175.491 -151.724 170.171 170.45 -167.672 -97.721 89.771 -76.8552 89.8182 -0 -40.2881 18.3285 176.368 159.414 -172.145 172.95 161.69 97.2463 4.13698 101.472 -3.99893 -0 -18.1651 -17.4052 174.582 147.213 -179.874 6.03759 -9.97524 -2.99294 157.236 179.991 -165.713 28.6496 0 0 174.196 -154.554 167.195 179.732 171.155 -172.307 160.866 -179.856 165.828 5.11614 0 0
 -9.13909 46.2287 63.2104 4.39982 -48.8111 7.61982 4.6986e-05 0.0078775 -0.341742 1.52774 0.0157545 -0.56957 2.46265 0.0472635 -0.56957 3.82224 0.0078775 -0.341742 173.967 179.988 179.887 161.747 -157.61 167.586 172.936 -142.409 171.368 175.605 -151.686 170.421 170.418 -167.585 -98.0263 89.7935 -76.7671 89.8445 -0 -40.2558 18.4123 176.363 159.318 -172.132 172.885 161.625 97.0897 3.58804 101.318 -3.43966 -0 -18.5935 -16.7655 174.615 147.219 -179.897 5.88557 -9.9935 -2.89523 157.283 179.998 -165.675 28.6504 0 0 174.099 -154.422 167.203 179.798 171.123 -172.209 160.889 -179.871 165.825 5.11615 0 0
 -9.15931 46.2285 63.2205 4.35498 -48.6498 7.4779 3.59848e-05 0.00625632 -0.329547 1.52831 0.0125123 -0.549245 2.46797 0.0375368 -0.549245 3.8371 0.00625632 -0.329547 173.933 179.988 179.891 161.645 -157.633 167.554 172.9 -142.414 171.348 175.64 -151.694 170.498 170.185 -167.363 -98.5018 90.951 -76.6996 91.0084 -0 -40.5463 18.6887 176.357 159.231 -172.118 172.894 161.535 96.9512 2.78595 101.409 -2.70064 -0 -18.9467 -16.213 174.675 147.183 -179.778 5.77438 -10.0006 -2.89541 157.244 -180 -165.671 28.651 0 0 174.117 -154.339 167.268 179.866 171.068 -172.145 160.91 -179.886 165.826 5.11608 0 0
